<mxfile host="app.diagrams.net" modified="2023-07-23T12:18:56.245Z" agent="Mozilla/5.0 (Windows NT 10.0; Win64; x64) AppleWebKit/537.36 (KHTML, like Gecko) Chrome/114.0.0.0 Safari/537.36" version="21.6.5" etag="TXC8qpEGrCPfXOPSFvf9" type="github">
  <diagram name="Halaman-1" id="xl9daYyk29EBkSzKD_3H">
    <mxGraphModel>
      <root>
        <mxCell id="0" />
        <mxCell id="1" parent="0" />
      </root>
    </mxGraphModel>
  </diagram>
</mxfile>
